<svg aria-hidden="true" style="position: absolute; width: 0; height: 0; overflow: hidden;" version="1.1" xmlns="http://www.w3.org/2000/svg" xmlns:xlink="http://www.w3.org/1999/xlink">
<defs>
<symbol id="icon-facebook" viewBox="0 0 32 32">
<path fill="#1877f2" style="fill: var(--color1, #1877f2)" d="M31.997 15.999c0-8.836-7.163-15.999-15.999-15.999s-15.999 7.163-15.999 15.999c0 7.985 5.851 14.604 13.499 15.804v-11.18h-4.062v-4.625h4.062v-3.525c0-4.010 2.389-6.225 6.043-6.225 1.75 0 3.581 0.313 3.581 0.313v3.937h-2.017c-1.987 0-2.607 1.233-2.607 2.498v3.001h4.437l-0.709 4.625h-3.728v11.18c7.649-1.2 13.499-7.819 13.499-15.804z"></path>
</symbol>
<symbol id="icon-instagram" viewBox="0 0 32 32">
<path fill="#e4405f" style="fill: var(--color2, #e4405f)" d="M16 0c-4.347 0-4.889 0.020-6.596 0.096-1.704 0.080-2.864 0.348-3.884 0.744-1.052 0.408-1.945 0.956-2.835 1.845s-1.439 1.781-1.845 2.835c-0.396 1.020-0.665 2.18-0.744 3.884-0.080 1.707-0.096 2.249-0.096 6.596s0.020 4.889 0.096 6.596c0.080 1.703 0.348 2.864 0.744 3.884 0.408 1.051 0.956 1.945 1.845 2.835 0.889 0.888 1.781 1.439 2.835 1.845 1.021 0.395 2.181 0.665 3.884 0.744 1.707 0.080 2.249 0.096 6.596 0.096s4.889-0.020 6.596-0.096c1.703-0.080 2.864-0.349 3.884-0.744 1.051-0.408 1.945-0.957 2.835-1.845 0.888-0.889 1.439-1.78 1.845-2.835 0.395-1.020 0.665-2.181 0.744-3.884 0.080-1.707 0.096-2.249 0.096-6.596s-0.020-4.889-0.096-6.596c-0.080-1.703-0.349-2.865-0.744-3.884-0.408-1.052-0.957-1.945-1.845-2.835-0.889-0.889-1.78-1.439-2.835-1.845-1.020-0.396-2.181-0.665-3.884-0.744-1.707-0.080-2.249-0.096-6.596-0.096zM16 2.88c4.271 0 4.78 0.021 6.467 0.095 1.56 0.073 2.407 0.332 2.969 0.553 0.749 0.289 1.28 0.636 1.843 1.195 0.559 0.56 0.905 1.092 1.195 1.841 0.219 0.563 0.48 1.409 0.551 2.969 0.076 1.688 0.093 2.195 0.093 6.467s-0.020 4.78-0.099 6.467c-0.081 1.56-0.341 2.407-0.561 2.969-0.299 0.749-0.639 1.28-1.199 1.843-0.559 0.559-1.099 0.905-1.84 1.195-0.56 0.219-1.42 0.48-2.98 0.551-1.699 0.076-2.199 0.093-6.479 0.093-4.281 0-4.781-0.020-6.479-0.099-1.561-0.081-2.421-0.341-2.981-0.561-0.759-0.299-1.28-0.639-1.839-1.199-0.561-0.559-0.92-1.099-1.2-1.84-0.22-0.56-0.479-1.42-0.56-2.98-0.060-1.68-0.081-2.199-0.081-6.459 0-4.261 0.021-4.781 0.081-6.481 0.081-1.56 0.34-2.419 0.56-2.979 0.28-0.76 0.639-1.28 1.2-1.841 0.559-0.559 1.080-0.919 1.839-1.197 0.56-0.221 1.401-0.481 2.961-0.561 1.7-0.060 2.2-0.080 6.479-0.080zM16 7.784c-4.54 0-8.216 3.68-8.216 8.216 0 4.54 3.68 8.216 8.216 8.216 4.54 0 8.216-3.68 8.216-8.216 0-4.54-3.68-8.216-8.216-8.216zM16 21.333c-2.947 0-5.333-2.387-5.333-5.333s2.387-5.333 5.333-5.333 5.333 2.387 5.333 5.333-2.387 5.333-5.333 5.333zM26.461 7.46c0 1.060-0.861 1.92-1.92 1.92-1.060 0-1.92-0.861-1.92-1.92s0.861-1.919 1.92-1.919c1.057-0.001 1.92 0.86 1.92 1.919z"></path>
</symbol>
<symbol id="icon-telegram" viewBox="0 0 32 32">
<path fill="#2ca5e0" style="fill: var(--color3, #2ca5e0)" d="M31.88 5.053l-4.813 22.733c-0.333 1.613-1.307 2-2.667 1.253l-7.333-5.427-3.547 3.427c-0.4 0.4-0.733 0.747-1.467 0.747-0.96 0-0.8-0.36-1.12-1.267l-2.533-8.253-7.267-2.267c-1.573-0.467-1.587-1.547 0.347-2.333l28.347-10.933c1.293-0.573 2.533 0.32 2.053 2.32z"></path>
</symbol>
<symbol id="icon-viber" viewBox="0 0 32 32">
<path fill="#665cac" style="fill: var(--color4, #665cac)" d="M15.197 0.003c-2.567 0.035-8.089 0.456-11.179 3.287-2.293 2.28-3.095 5.641-3.188 9.804-0.080 4.147-0.173 11.933 7.333 14.055v3.227c0 0-0.051 1.293 0.803 1.56 1.053 0.333 1.653-0.665 2.653-1.732l1.867-2.107c5.133 0.427 9.067-0.559 9.52-0.705 1.040-0.333 6.908-1.081 7.868-8.869 0.987-8.041-0.48-13.108-3.12-15.401l-0.013-0.003c-0.8-0.733-4-3.067-11.16-3.093 0 0-0.528-0.033-1.384-0.021zM15.287 2.265c0.727-0.004 1.173 0.027 1.173 0.027 6.053 0.013 8.948 1.84 9.628 2.453 2.227 1.905 3.371 6.475 2.533 13.189-0.8 6.507-5.56 6.92-6.44 7.2-0.373 0.12-3.84 0.973-8.203 0.693 0 0-3.252 3.921-4.265 4.935-0.16 0.173-0.347 0.227-0.467 0.2-0.173-0.040-0.227-0.253-0.213-0.547l0.027-5.359c-6.361-1.76-5.988-8.403-5.921-11.869 0.080-3.467 0.733-6.309 2.667-8.229 2.609-2.36 7.3-2.68 9.481-2.693zM15.767 5.732c-0 0-0.001 0-0.001 0-0.22 0-0.399 0.178-0.399 0.399 0 0 0 0 0 0v0c0 0.221 0.179 0.4 0.4 0.4v0c0.043-0.001 0.093-0.001 0.143-0.001 2.034 0 3.88 0.809 5.232 2.123l-0.002-0.002c1.453 1.413 2.161 3.307 2.188 5.787 0 0.221 0.179 0.4 0.4 0.4v0-0.012c0.221 0 0.4-0.179 0.4-0.4v0c0.005-0.109 0.008-0.236 0.008-0.364 0-2.326-0.923-4.436-2.423-5.985l0.002 0.002c-1.587-1.547-3.589-2.347-5.948-2.347zM10.495 6.652c-0.054-0.008-0.116-0.013-0.18-0.013-0.236 0-0.457 0.064-0.646 0.176l0.006-0.003h-0.016c-0.547 0.32-1.051 0.72-1.531 1.253-0.36 0.427-0.561 0.852-0.615 1.265-0.009 0.064-0.014 0.137-0.014 0.212 0 0.182 0.029 0.357 0.084 0.521l-0.003-0.012 0.027 0.013c0.458 1.331 0.998 2.476 1.646 3.549l-0.046-0.082c0.895 1.608 1.922 2.996 3.101 4.237l-0.008-0.009 0.040 0.053 0.053 0.040 0.080 0.080c1.236 1.174 2.628 2.205 4.136 3.053l0.104 0.054c1.76 0.96 2.829 1.413 3.469 1.6v0.013c0.187 0.053 0.357 0.080 0.531 0.080 0.57-0.043 1.079-0.274 1.471-0.631l-0.002 0.002c0.52-0.467 0.933-0.984 1.24-1.531v-0.013c0.307-0.573 0.2-1.121-0.24-1.495-0.845-0.742-1.782-1.421-2.781-2.007l-0.085-0.046c-0.68-0.373-1.373-0.147-1.653 0.227l-0.6 0.759c-0.307 0.373-0.867 0.32-0.867 0.32l-0.016 0.013c-4.16-1.067-5.267-5.279-5.267-5.279s-0.053-0.573 0.333-0.867l0.747-0.6c0.36-0.293 0.613-0.987 0.227-1.667-0.631-1.084-1.31-2.022-2.071-2.887l0.017 0.020c-0.166-0.204-0.399-0.349-0.665-0.399l-0.007-0.001zM16.459 7.839c-0.22 0.001-0.399 0.18-0.399 0.4s0.179 0.4 0.4 0.4c0 0 0.001 0 0.001 0h-0c1.388 0.025 2.636 0.607 3.532 1.532l0.001 0.001c0.75 0.825 1.209 1.926 1.209 3.134 0 0.103-0.003 0.205-0.010 0.306l0.001-0.014c0.001 0.22 0.18 0.399 0.4 0.399 0 0 0 0 0 0v0l0.013 0.016c0 0 0 0 0 0 0.221 0 0.4-0.179 0.4-0.4 0-0 0-0.001 0-0.001v0c0.040-1.587-0.453-2.92-1.427-3.987s-2.333-1.667-4.067-1.787c-0.008-0.001-0.018-0.001-0.028-0.001s-0.020 0-0.029 0.001l0.001-0zM17.112 9.997c-0.004-0-0.008-0-0.012-0-0.225 0-0.407 0.182-0.407 0.408 0 0.221 0.176 0.401 0.395 0.407h0.001c1.32 0.067 1.96 0.733 2.040 2.107 0.007 0.215 0.184 0.387 0.4 0.387 0 0 0 0 0 0h0.013c0.215-0.007 0.388-0.183 0.388-0.4 0-0.009-0-0.019-0.001-0.028l0 0.001c-0.093-1.787-1.067-2.788-2.8-2.881-0.002-0-0.005-0-0.008-0s-0.006 0-0.008 0h0z"></path>
</symbol>
<!-- <symbol id="icon-location_on" viewBox="0 0 24 24">
<path d="M12 11.484q1.031 0 1.758-0.727t0.727-1.758-0.727-1.758-1.758-0.727-1.758 0.727-0.727 1.758 0.727 1.758 1.758 0.727zM12 2.016q2.906 0 4.945 2.039t2.039 4.945q0 1.453-0.727 3.328t-1.758 3.516-2.039 3.070-1.711 2.273l-0.75 0.797q-0.281-0.328-0.75-0.867t-1.688-2.156-2.133-3.141-1.664-3.445-0.75-3.375q0-2.906 2.039-4.945t4.945-2.039z"></path> -->
<symbol id="icon-calendar" viewBox="0 0 29 32">
<path stroke-width="3.7647" stroke-miterlimit="4" stroke-linecap="butt" stroke-linejoin="round" d="M24.471 4.706c1.544 0 2.824 1.261 2.824 2.824v19.765c0 1.544-1.28 2.824-2.824 2.824h-19.765c-1.562 0-2.824-1.28-2.824-2.824v-19.765c0-1.562 1.261-2.824 2.824-2.824h19.765z"></path>
<path stroke-width="3.7647" stroke-miterlimit="4" stroke-linecap="round" stroke-linejoin="round" d="M20.235 1.882v5.647"></path>
<path stroke-width="3.7647" stroke-miterlimit="4" stroke-linecap="round" stroke-linejoin="round" d="M8.941 1.882v5.647"></path>
<path stroke-width="3.7647" stroke-miterlimit="4" stroke-linecap="round" stroke-linejoin="round" d="M1.882 13.176h25.412"></path>
</symbol>
<symbol id="icon-location_on" viewBox="0 0 24 24">
<path d="M12 11.484q1.031 0 1.758-0.727t0.727-1.758-0.727-1.758-1.758-0.727-1.758 0.727-0.727 1.758 0.727 1.758 1.758 0.727zM12 2.016q2.906 0 4.945 2.039t2.039 4.945q0 1.453-0.727 3.328t-1.758 3.516-2.039 3.070-1.711 2.273l-0.75 0.797q-0.281-0.328-0.75-0.867t-1.688-2.156-2.133-3.141-1.664-3.445-0.75-3.375q0-2.906 2.039-4.945t4.945-2.039z"></path>
</symbol>
<symbol id="icon-com" viewBox="0 0 32 32">
<path d="M4.926 25.236c-0.092 0.242-0.325 0.388-0.567 0.388-0.078 0-0.155-0.010-0.228-0.044-2.342-0.931-3.767-2.128-4.112-3.462-0.087-0.33 0.107-0.664 0.436-0.752 0.33-0.082 0.664 0.111 0.747 0.441 0.242 0.926 1.445 1.862 3.379 2.633 0.315 0.126 0.47 0.48 0.344 0.795zM7.011 18.802c0.116 0.097 0.257 0.145 0.398 0.145 0.17 0 0.344-0.073 0.465-0.218 0.218-0.257 0.189-0.645-0.068-0.868-0.305-0.257-0.601-0.533-0.887-0.815-2.691-2.705-4.102-6.138-3.675-8.878 1.149-0.179 2.419-0.034 3.709 0.398 0.053 0.029 0.116 0.049 0.175 0.058 1.716 0.611 3.452 1.721 4.96 3.234 0.378 0.378 0.742 0.785 1.076 1.198 0.209 0.267 0.596 0.305 0.858 0.092 0.267-0.213 0.305-0.596 0.092-0.863-0.359-0.451-0.747-0.887-1.159-1.299-1.552-1.552-3.336-2.72-5.13-3.404-0.044-1.115 0.141-2.128 0.538-2.928 1.013 0.218 2.061 0.839 3.001 1.775-0.131 0.524-0.238 1.067-0.31 1.624-0.049 0.335 0.189 0.645 0.524 0.693 0.335 0.044 0.645-0.189 0.688-0.528 0.412-3.011 1.716-5.542 3.52-6.865 1.804 1.324 3.103 3.855 3.515 6.865 0.049 0.335 0.359 0.572 0.693 0.524 0.335-0.044 0.567-0.354 0.524-0.693-0.078-0.553-0.179-1.096-0.315-1.619 0.945-0.936 1.993-1.556 3.001-1.775 0.398 0.8 0.587 1.813 0.543 2.928-1.799 0.688-3.583 1.852-5.13 3.404-0.412 0.412-0.8 0.848-1.164 1.299-0.213 0.267-0.17 0.65 0.092 0.863 0.267 0.213 0.65 0.175 0.863-0.092 0.335-0.412 0.693-0.819 1.072-1.198 1.508-1.513 3.244-2.623 4.96-3.234 0.063-0.010 0.121-0.029 0.175-0.058 1.29-0.431 2.56-0.577 3.709-0.398 0.427 2.739-0.979 6.172-3.675 8.878-0.281 0.281-0.577 0.558-0.882 0.815-0.257 0.223-0.291 0.611-0.068 0.868 0.218 0.262 0.606 0.291 0.863 0.073 0.33-0.281 0.65-0.582 0.955-0.887 3.113-3.122 4.655-7.21 3.927-10.405-0.049-0.233-0.228-0.412-0.461-0.465-1.236-0.281-2.608-0.223-4.005 0.141-0.015-1.353-0.335-2.589-0.931-3.535-0.126-0.204-0.354-0.31-0.591-0.286-1.232 0.145-2.502 0.761-3.646 1.755-0.79-2.221-2.090-4.010-3.699-5.028-0.199-0.126-0.456-0.126-0.655 0-1.61 1.018-2.904 2.807-3.699 5.028-1.144-0.994-2.415-1.61-3.646-1.755-0.233-0.024-0.461 0.082-0.587 0.286-0.596 0.945-0.916 2.182-0.931 3.535-1.396-0.364-2.768-0.422-4.005-0.141-0.233 0.053-0.412 0.233-0.465 0.465-0.722 3.195 0.819 7.282 3.932 10.405 0.305 0.305 0.625 0.606 0.955 0.887zM6.72 23.607c0.112-0.32-0.058-0.669-0.378-0.781-1.847-0.65-2.953-1.469-2.953-2.192 0-0.47 0.485-0.999 1.358-1.493 0.296-0.165 0.398-0.538 0.233-0.834s-0.538-0.402-0.834-0.238c-1.314 0.742-1.978 1.605-1.978 2.565 0 1.329 1.304 2.487 3.772 3.355 0.068 0.024 0.136 0.034 0.204 0.034 0.252 0 0.49-0.16 0.577-0.417zM25.105 22.87c-0.32 0.107-0.49 0.456-0.383 0.781 0.087 0.252 0.325 0.417 0.582 0.417 0.063 0 0.131-0.010 0.194-0.034 2.56-0.873 3.908-2.046 3.908-3.399 0-0.926-0.621-1.765-1.842-2.487-0.291-0.17-0.664-0.073-0.839 0.218-0.17 0.296-0.073 0.669 0.218 0.844 0.8 0.47 1.241 0.979 1.241 1.421-0.005 0.737-1.178 1.59-3.079 2.24zM21.862 27.365c0 0.621-0.504 1.13-1.125 1.13-0.339 0-0.611 0.276-0.611 0.616s0.271 0.616 0.611 0.616c1.295 0 2.352-1.062 2.352-2.361 0-0.339-0.276-0.616-0.611-0.616-0.339 0-0.616 0.276-0.616 0.616zM31.055 21.367c-0.33-0.082-0.664 0.111-0.747 0.441-0.242 0.926-1.44 1.862-3.379 2.633-0.315 0.126-0.47 0.48-0.344 0.8 0.092 0.238 0.325 0.388 0.567 0.388 0.078 0 0.15-0.015 0.228-0.044 2.342-0.936 3.767-2.133 4.111-3.467 0.087-0.33-0.111-0.664-0.436-0.752zM20.165 21.634c0 0.335-0.267 0.606-0.601 0.606-0.339 0-0.616 0.276-0.616 0.616s0.276 0.616 0.616 0.616c1.009 0 1.828-0.824 1.828-1.838 0-0.339-0.271-0.616-0.611-0.616s-0.616 0.276-0.616 0.616zM18.415 17.707h0.16c0.339 0 0.616-0.276 0.616-0.616s-0.276-0.616-0.616-0.616h-0.16c-0.335 0-0.611 0.276-0.611 0.616s0.276 0.616 0.611 0.616zM24.747 24.756c0.558 0.785 0.858 1.707 0.858 2.667 0 2.521-2.046 4.577-4.558 4.577h-10.521c-2.511 0-4.558-2.056-4.558-4.577 0-1.673 0.926-3.205 2.356-4-0.199-0.456-0.31-0.96-0.31-1.488 0-1.61 1.033-2.982 2.463-3.491-0.315-0.456-0.499-1.013-0.499-1.615 0-1.571 1.27-2.851 2.836-2.851h5.944c1.566 0 2.836 1.28 2.836 2.851s-1.27 2.851-2.836 2.851h-5.944c-0.378 0-0.742-0.078-1.076-0.213-0.015 0-0.029 0-0.044 0-1.353 0-2.453 1.105-2.453 2.468 0 0.504 0.155 0.979 0.417 1.372 0.019 0.024 0.039 0.053 0.058 0.082 0.446 0.611 1.168 1.009 1.978 1.009h8.184c1.353 0 2.453-1.105 2.453-2.463 0-0.732-0.325-1.425-0.892-1.896-0.257-0.218-0.296-0.606-0.078-0.868 0.213-0.262 0.601-0.296 0.863-0.082 0.849 0.708 1.333 1.745 1.333 2.841 0 2.041-1.653 3.695-3.68 3.695h-8.184c-1.057 0-2.017-0.451-2.691-1.173-1.096 0.567-1.809 1.716-1.809 2.972 0 1.842 1.493 3.345 3.331 3.345h10.521c1.838 0 3.331-1.503 3.331-3.345 0-0.703-0.218-1.372-0.625-1.944-0.199-0.276-0.136-0.659 0.136-0.858 0.276-0.199 0.659-0.136 0.858 0.136zM11.2 16.829c0 0.892 0.727 1.619 1.615 1.619h5.944c0.887 0 1.615-0.727 1.615-1.619 0-0.897-0.727-1.619-1.615-1.619h-5.944c-0.887 0-1.615 0.722-1.615 1.619z"></path>
</symbol>
<symbol id="icon-comfort" viewBox="0 0 22 32">
<path d="M13.462 19.378c-0.178-0.2-0.484-0.218-0.684-0.040-0.293 0.262-1.027 0.529-2.009 0.529s-1.716-0.267-2.009-0.529c-0.2-0.178-0.511-0.16-0.689 0.040s-0.16 0.507 0.040 0.689c0.542 0.484 1.533 0.773 2.658 0.773 1.12 0 2.116-0.289 2.658-0.773 0.2-0.182 0.218-0.489 0.036-0.689z"></path>
<path d="M9.618 15.089c-0.182-0.196-0.489-0.209-0.689-0.031-0.138 0.129-0.529 0.267-1.053 0.267-0.529 0-0.916-0.138-1.058-0.267-0.2-0.178-0.507-0.164-0.689 0.031-0.182 0.2-0.164 0.507 0.031 0.689 0.36 0.324 1 0.52 1.716 0.52s1.356-0.196 1.711-0.52c0.2-0.182 0.213-0.489 0.031-0.689z"></path>
<path d="M10.084 12.809c-0.453-0.293-1.28-0.471-2.209-0.471s-1.756 0.178-2.213 0.471c-0.222 0.147-0.289 0.449-0.142 0.676 0.093 0.142 0.249 0.218 0.409 0.218 0.089 0 0.182-0.022 0.262-0.076 0.244-0.16 0.858-0.316 1.684-0.316s1.44 0.156 1.68 0.316c0.227 0.147 0.529 0.080 0.671-0.147 0.147-0.222 0.084-0.524-0.142-0.671z"></path>
<path d="M15.404 15.089c-0.178-0.196-0.484-0.209-0.684-0.031-0.142 0.129-0.533 0.267-1.058 0.267s-0.916-0.138-1.058-0.267c-0.196-0.178-0.507-0.164-0.684 0.031-0.182 0.2-0.169 0.507 0.031 0.689 0.356 0.324 0.996 0.52 1.711 0.52s1.356-0.196 1.711-0.52c0.2-0.182 0.213-0.489 0.031-0.689z"></path>
<path d="M15.876 12.809c-0.458-0.293-1.284-0.471-2.213-0.471s-1.756 0.178-2.209 0.471c-0.227 0.147-0.289 0.449-0.147 0.676 0.147 0.222 0.449 0.289 0.676 0.142 0.24-0.156 0.853-0.316 1.68-0.316s1.44 0.16 1.684 0.316c0.080 0.053 0.173 0.080 0.262 0.080 0.16 0 0.316-0.080 0.409-0.222 0.147-0.227 0.080-0.529-0.142-0.676z"></path>
<path d="M20.196 28.698c-0.862-0.729-2.031-1.133-3.298-1.133-1.671 0-2.822-0.369-3.311-0.564v-2.204c2.502-0.907 4.444-2.982 5.169-5.564 1.564-0.196 2.782-1.538 2.782-3.156 0-1.489-1.058-2.773-2.476-3.098v-1.076c0.56-1.969 0.529-3.907 0.396-5.187-0.076-0.733-0.187-1.333-0.267-1.711-0.076-0.351-0.124-0.538-0.16-0.649-0.009-0.027-0.018-0.058-0.031-0.084-0.538-1.142-1.498-2.116-2.724-2.844-0.022-0.018-0.049-0.031-0.076-0.044-1.511-0.876-3.409-1.382-5.431-1.382-1.591 0-3.151 0.311-4.502 0.907-0.244 0.111-0.356 0.396-0.249 0.644 0.107 0.244 0.396 0.356 0.64 0.249 1.231-0.542 2.653-0.831 4.111-0.831 1.613 0 3.133 0.347 4.396 0.956-0.591 0.511-1.293 1-2.138 1.489-0.231 0.133-0.311 0.431-0.173 0.662 0.089 0.156 0.253 0.244 0.418 0.244 0.084 0 0.169-0.022 0.244-0.067 1.018-0.591 1.853-1.191 2.547-1.822 0.844 0.551 1.516 1.24 1.942 2.027-0.018 0.027-0.036 0.053-0.053 0.080-0.009 0.018-0.022 0.036-0.036 0.053-1.062 1.551-3.324 3.040-6.596 4.338-0.018 0.009-0.036 0.018-0.058 0.022-0.071 0.031-0.142 0.058-0.213 0.084-3.253 1.258-6.569 1.996-7.738 2.236-0.267-1.076-0.351-2.142-0.338-3.089 0.404-0.080 0.804-0.2 1.2-0.311 0.307-0.089 0.627-0.182 0.933-0.253 0.004 0 0.009 0 0.013-0.004 2-0.529 3.969-1.244 6.382-2.316 0.244-0.111 0.356-0.4 0.244-0.644-0.107-0.244-0.396-0.356-0.64-0.244-2.36 1.049-4.284 1.751-6.227 2.262-0.329 0.080-0.662 0.173-0.978 0.267-0.307 0.089-0.6 0.173-0.884 0.24 0.102-1.36 0.364-2.338 0.413-2.524 0.338-0.698 0.871-1.333 1.587-1.884 0.209-0.164 0.249-0.471 0.084-0.684s-0.471-0.249-0.684-0.084c-0.844 0.658-1.48 1.422-1.88 2.276-0.013 0.018-0.022 0.040-0.027 0.067-0.049 0.151-1.116 3.778-0.036 7.56v1.076c-1.422 0.324-2.476 1.609-2.476 3.102 0 1.613 1.213 2.956 2.782 3.151 0.72 2.582 2.667 4.658 5.164 5.564v2.204c-0.484 0.196-1.64 0.569-3.307 0.569-1.267 0-2.44 0.4-3.298 1.129-0.867 0.738-1.342 1.738-1.342 2.813 0 0.271 0.213 0.489 0.484 0.489h20.569c0.267 0 0.484-0.218 0.484-0.489 0-1.076-0.476-2.076-1.342-2.813zM18.982 18.147c0.053-0.382 0.080-0.764 0.080-1.151v-3.009c0.876 0.298 1.502 1.133 1.502 2.093 0 1-0.671 1.849-1.587 2.116 0-0.013 0.004-0.031 0.004-0.049zM0.969 16.080c0-0.96 0.631-1.796 1.507-2.093v3.009c0 0.387 0.027 0.769 0.080 1.151 0 0.018 0 0.036 0.004 0.049-0.916-0.267-1.591-1.116-1.591-2.116zM18.187 5.822c0.009-0.013 0.022-0.027 0.031-0.040 0.031-0.031 0.062-0.067 0.093-0.102 0.004-0.009 0.009-0.013 0.013-0.022 0.222 1.231 0.449 3.391-0.098 5.613-0.969-0.2-3.413-0.738-6.067-1.631 2.778-1.151 4.796-2.427 6.027-3.818zM3.564 18.302c0-0.004-0.004-0.009-0.004-0.013-0.076-0.427-0.111-0.858-0.111-1.293v-4.76c0.004 0 0.009-0.004 0.013-0.004 0.751-0.151 1.502-0.324 2.244-0.511 0.787-0.196 1.569-0.409 2.342-0.64 0.507-0.151 1.013-0.311 1.516-0.48 0.013 0 0.022-0.004 0.031-0.009h2.347c2.716 0.907 5.204 1.453 6.147 1.644v4.76c0 0.431-0.036 0.867-0.111 1.293-0.004 0.004-0.004 0.009-0.004 0.013-0.498 2.751-2.538 4.973-5.191 5.733-0.004 0.004-0.009 0.004-0.013 0.004-0.649 0.182-1.324 0.28-2 0.28s-1.356-0.093-2-0.28c-0.004 0-0.004 0-0.009 0-2.653-0.76-4.698-2.982-5.196-5.738zM1.018 31.027c0.116-0.604 0.444-1.151 0.956-1.587 0.684-0.582 1.631-0.902 2.667-0.902 2.502 0 3.96-0.76 4.022-0.791 0.16-0.084 0.258-0.249 0.258-0.427 0 0 0-2.236 0-2.236 0 0.187 1.751 0.204 1.849 0.204 0.618 0 1.24-0.067 1.844-0.204v2.236c0 0.178 0.102 0.342 0.258 0.427 0.062 0.036 1.52 0.791 4.022 0.791 1.040 0 1.987 0.32 2.671 0.902 0.511 0.436 0.84 0.987 0.956 1.587h-19.502z"></path>
</symbol>
<symbol id="icon-mat" viewBox="0 0 27 32">
<path d="M26.324 11.625c-0.398-0.454-0.986-0.718-1.617-0.718h-5.114v-1.081c0-1.587-1.288-2.879-2.875-2.879h-0.497v-0.082c0-1.133-0.899-2.058-2.023-2.105v-1.081c0.471-0.108 0.882-0.268 1.223-0.476 0.636-0.385 0.912-0.852 1.033-1.176 0.264-0.722-0.013-1.552-0.64-1.889-0.177-0.091-0.363-0.138-0.558-0.138-0.424 0-0.821 0.233-1.059 0.618-0.121 0.078-0.588 0.316-1.768 0.316h-2.944c-1.496 0-2.425 1.025-2.425 2.672 0 0.808 0.579 1.466 1.297 1.466 0.636 0 1.167-0.523 1.275-1.206h1.414v0.895c-1.12 0.048-2.019 0.973-2.019 2.105v0.082h-0.497c-1.587 0-2.879 1.293-2.879 2.879v0.039h-1.85c-0.826 0-1.492 0.67-1.492 1.492v2.823c-0.45 0.38-0.735 0.951-0.735 1.591v0.929c-0.856 0.605-1.435 1.578-1.509 2.693-0.030 0.493-0.056 1.012-0.065 1.543-0.009 0.268 0.207 0.493 0.476 0.497 0.268 0.009 0.493-0.207 0.497-0.476 0.013-0.519 0.035-1.025 0.065-1.5 0.065-0.986 0.67-1.816 1.517-2.209 0.004-0.004 0.009-0.004 0.017-0.009 0.337-0.151 0.709-0.233 1.081-0.233h2.559c0.372 0 0.739 0.082 1.081 0.233 0.004 0.004 0.009 0.004 0.017 0.009 0.852 0.393 1.453 1.271 1.513 2.209 0.052 0.744 0.078 1.504 0.078 2.261 0 0.359-0.013 0.718-0.022 1.076 0 0.013 0 0.026 0 0.039-0.004 0.13-0.354 0.476-0.432 0.61-0.121 0.216-0.216 0.441-0.29 0.679-0.164 0.536-0.199 1.102-0.212 1.66-0.013 0.834 0.069 1.673 0.255 2.486 0 0.004 0 0.009 0.004 0.013-0.311 0.847-1.102 1.405-2.010 1.405h-2.525c-1.007 0-1.885-0.713-2.097-1.699-0.329-1.569-0.527-3.286-0.588-5.106-0.009-0.268-0.238-0.48-0.506-0.471s-0.48 0.233-0.471 0.506c0.065 1.876 0.268 3.649 0.614 5.27 0.303 1.435 1.587 2.477 3.048 2.477h2.525c0.951 0 1.811-0.419 2.391-1.111 0.307 0.817 0.722 1.582 1.236 2.252 0.091 0.121 0.233 0.19 0.385 0.19h9.208c0.151 0 0.294-0.069 0.385-0.19 0.151-0.195 0.29-0.398 0.424-0.605h4.193c0.268 0 0.489-0.216 0.489-0.489v-4.025l1.154-8.365c0.039-0.268-0.147-0.514-0.415-0.553-0.268-0.035-0.514 0.151-0.549 0.419l-0.925 6.692h-2.551c-0.035-0.324-0.104-0.64-0.216-0.942-0.346-0.925-1.059-1.656-1.95-2.036l-0.017-0.13-1.215-8.776c-0.004-0.030-0.009-0.061-0.009-0.095 0 0 0 0 0-0.004-0.009-0.316 0.16-0.601 0.406-0.787 0.199-0.151 0.458-0.225 0.705-0.225h5.387c0.346 0 0.666 0.138 0.878 0.385 0.182 0.207 0.259 0.467 0.225 0.726l-0.45 3.238c-0.035 0.268 0.151 0.514 0.419 0.549 0.264 0.039 0.51-0.147 0.549-0.415l0.45-3.238c0.073-0.545-0.086-1.081-0.458-1.504zM9.485 2.888c-0.225 0-0.506 0.026-0.666 0.203-0.13 0.138-0.143 0.333-0.143 0.514 0 0.285-0.169 0.489-0.32 0.489s-0.324-0.203-0.324-0.489c0-1.474 0.912-1.695 1.453-1.695h2.944c0.454 0 0.925-0.026 1.379-0.125 0.389-0.082 0.826-0.208 1.111-0.501 0.104-0.108 0.156-0.311 0.337-0.311 0.030 0 0.065 0.009 0.095 0.030 0.173 0.091 0.29 0.406 0.186 0.687-0.086 0.229-0.45 0.869-1.894 1.107-0.004 0-0.009 0-0.013 0.004-0.398 0.065-0.8 0.086-1.202 0.086h-2.944zM13.22 3.83v0.925h-1.197v-0.895c0 0.022 1.197-0.022 1.197-0.030zM11.132 5.732h2.979c0.623 0 1.133 0.51 1.133 1.133v0.082h-5.244v-0.082c0-0.623 0.51-1.133 1.133-1.133zM3.281 11.361c0 0 0-0.004 0-0.004 0-0.285 0.233-0.514 0.519-0.514h2.265c0.013 0 0.022 0 0.030 0 0.004 0 0.009 0.004 0.009 0.004 0.571 0.039 0.476 0.705 0.476 1.107 0 0.484 0 0.968 0 1.457 0 0.099 0 0.199 0 0.298-0.125-0.022-0.251-0.035-0.38-0.035 0 0-2.533 0-2.533 0-0.121 0-0.259 0.035-0.385 0.030-0.035-0.774 0-1.565 0-2.343zM7.315 16.203c0-0.143-0.968-0.173-1.102-0.173h-2.559c-0.372 0-0.748 0.056-1.107 0.173 0 0 0-0.437 0-0.437 0-0.601 0.514-1.115 1.12-1.115h2.533c0.367 0 0.722 0.19 0.925 0.493 0.216 0.316 0.19 0.696 0.19 1.059zM20.976 29.765c0.004-0.026 0.013-0.043 0.017-0.056 0.169-0.48 0.32-0.968 0.428-1.461 0.177-0.787 0.264-1.591 0.251-2.395h2.257v4.371c0 0-3.173 0-3.173 0 0.082 0 0.177-0.316 0.22-0.458zM20.449 24.188h-2.3c-0.272 0-0.489 0.22-0.489 0.489 0 0.272 0.216 0.489 0.489 0.489h2.516c0.004 0.022 0.004 0.043 0.004 0.065 0.151 2.019-0.316 4.129-1.5 5.793h-8.715c-0.597-0.839-1.029-1.824-1.28-2.888-0.229-0.968-0.298-1.976-0.216-2.97h7.237c0.268 0 0.489-0.216 0.489-0.489 0-0.268-0.22-0.489-0.489-0.489h-7.025c0.125-0.298 0.311-0.571 0.54-0.808 0.489-0.497 1.185-0.795 1.889-0.795h6.424c0.225 0 0.445 0.030 0.657 0.086 0.778 0.203 1.448 0.761 1.768 1.517zM18.616 11.024c0-0.004-0.579 0.303-0.636 0.346-0.96 0.761-0.713 1.876-0.566 2.931l1.016 7.332c-0.004 0-0.009 0-0.009 0-0.056-0.009-0.112-0.013-0.169-0.017-0.013 0-0.026 0-0.039 0-0.061-0.004-0.125-0.009-0.19-0.009h-6.424c-0.311 0-0.618 0.043-0.916 0.121-0.147 0.039-0.29 0.082-0.432 0.138-0.048 0.022-0.376 0.134-0.376 0.177 0-0.108 0-0.216 0-0.324 0-0.782-0.026-1.565-0.073-2.326-0.039-0.553-0.207-1.102-0.489-1.582-0.125-0.22-0.277-0.424-0.45-0.61-0.086-0.099-0.182-0.19-0.277-0.277-0.039-0.035-0.294-0.199-0.294-0.233v-0.925c0-0.601-0.272-1.197-0.735-1.591v-2.819c0-0.035 0-0.069-0.004-0.104 0-0.004 0-0.013 0-0.022-0.048-0.571-0.419-1.046-0.925-1.254v-0.156c0-1.046 0.852-1.902 1.902-1.902h8.184c1.051 0 1.902 0.856 1.902 1.902 0 0 0 1.202 0 1.202z"></path>
</symbol>
</defs>
</svg>
