<svg xmlns="http://www.w3.org/2000/svg" xml:space="preserve" data-id="lg_jmZjXeyboanFAFlZkY" data-version="1" viewBox="0 0 1500 87"><g data-padding="20"><g transform="translate(10 1.54)scale(.9646)"><rect width="560" height="72.32" x="83.951" y="-393.048" fill="none" rx="0" ry="0" transform="translate(400.5 393.21)"/><path fill="#5c8692" d="M501.161 57.762h-.09l-16.09-41.34h5.34l9.42 24.09q.44 1.16.82 2.2.38 1.05.73 2.42.36-1.37.74-2.42.38-1.04.82-2.2l9.38-24.09h5.02Zm25.01-1.34h-5.07v-40h5.07Zm37.71 0h-6.17l-17.03-24.66 13.69-15.34h5.96l-13.6 15.29Zm-23.73 0h-5.07v-40h5.07Zm33.99-35.46h-10.67v-4.54h26.4v4.54h-10.67v35.46h-5.06Zm38.6 36.26q-4.31 0-8.11-1.62t-6.67-4.47q-2.86-2.84-4.49-6.62-1.62-3.78-1.62-8.09t1.62-8.09q1.63-3.77 4.49-6.62 2.87-2.84 6.67-4.47 3.8-1.62 8.11-1.62 4.36 0 8.13 1.62 3.78 1.63 6.65 4.47 2.87 2.85 4.49 6.62 1.62 3.78 1.62 8.09t-1.62 8.09-4.49 6.62q-2.87 2.85-6.65 4.47-3.77 1.62-8.13 1.62m0-4.8q4.4 0 7.96-2.15 3.55-2.16 5.62-5.8 2.07-3.65 2.07-8.05 0-4.44-2.07-8.06-2.07-3.63-5.62-5.78-3.56-2.16-7.96-2.16t-7.93 2.16q-3.54 2.15-5.62 5.78-2.09 3.62-2.09 8.06 0 4.4 2.09 8.05 2.08 3.64 5.62 5.8 3.53 2.15 7.93 2.15m31.54 4h-5.07v-40h10.05q3.78 0 6.49 1.51t4.2 3.98 1.49 5.4q0 3.29-1.87 5.91t-5.11 3.87l13.42 19.33h-5.91l-12.71-18.4h-4.98Zm0-35.46v12.8h4.98q2.58 0 4.2-.96t2.4-2.44q.78-1.49.78-3.05 0-2.8-2.03-4.58-2.02-1.77-5.35-1.77Zm32.25 35.46h-5.06v-40h5.06Zm14.53 0h-5.07v-40h5.07Zm9.22.01h-5.11l16.93-41.33h.09l16.93 41.33h-5.38l-4.71-11.86h-14Zm9.6-24-3.16 7.91h10.62l-3.15-7.91q-.58-1.51-1.11-2.98-.54-1.46-1.07-3.51-.53 2.05-1.02 3.49-.49 1.45-1.11 3m38.14 24h-4.8v-41.33l18.58 25.6 18.22-25.6v41.33h-5.06v-18.49q0-1.82.04-3.97.05-2.16.31-4.92-1.38 2.45-2.69 4.29-1.31 1.85-2.37 3.4l-8.63 12.23-8.89-12.23q-1.11-1.55-2.37-3.4-1.27-1.84-2.69-4.29.26 2.76.31 4.92.04 2.15.04 3.97Zm52.58.53q-3.78 0-6.72-1.67-2.93-1.67-4.6-4.62-1.66-2.96-1.66-6.83v-27.42h5.06v27.25q0 3.95 2.27 6.35t5.73 2.4q3.43 0 5.72-2.38 2.28-2.37 2.28-6.2v-27.42h4.89v27.25q0 3.91-1.66 6.91-1.67 3-4.58 4.69t-6.73 1.69m38.5.26q-4.31 0-8.11-1.62t-6.67-4.47q-2.86-2.84-4.48-6.62-1.63-3.78-1.63-8.09t1.63-8.09q1.62-3.77 4.48-6.62 2.87-2.84 6.67-4.47 3.8-1.62 8.11-1.62 4.27 0 8 1.58 3.74 1.58 6.58 4.33l-1.47 6.14q-2.04-3.29-5.49-5.27-3.44-1.98-7.62-1.98-4.4 0-7.93 2.16-3.53 2.15-5.62 5.78-2.09 3.62-2.09 8.06 0 4.4 2.09 8.05 2.09 3.64 5.62 5.8 3.53 2.15 7.93 2.15 4.22 0 7.65-2 3.42-2 5.46-5.24l1.47 6.13q-2.84 2.71-6.58 4.31-3.73 1.6-8 1.6m24.3-.8h-5.07v-40h5.07v13.07h14.22v-13.07h5.07v40h-5.07v-22.4h-14.22Zm39.94 0h-5.07v-19.33l-12-20.67h5.87l6.57 11.65q.63 1.11 1.18 2.2.56 1.09 1.14 2.51.57-1.42 1.15-2.51t1.2-2.2l6.62-11.65h5.34l-12 20.67Zm33.54.8q-4.31 0-8.11-1.62t-6.67-4.47q-2.87-2.84-4.49-6.62t-1.62-8.09 1.62-8.09q1.62-3.77 4.49-6.62 2.87-2.84 6.67-4.47 3.8-1.62 8.11-1.62 4.26 0 8 1.58 3.73 1.58 6.57 4.33l-1.46 6.14q-2.05-3.29-5.49-5.27-3.45-1.98-7.62-1.98-4.4 0-7.94 2.16-3.53 2.15-5.62 5.78-2.09 3.62-2.09 8.06 0 4.4 2.09 8.05 2.09 3.64 5.62 5.8 3.54 2.15 7.94 2.15 4.22 0 7.64-2t5.47-5.24l1.46 6.13q-2.84 2.71-6.57 4.31-3.74 1.6-8 1.6m24.29-.8h-5.06v-40h5.06v13.07h14.22v-13.07h5.07v40h-5.07v-22.4h-14.22Zm56.47 0h-6.17l-17.03-24.66 13.69-15.34h5.96l-13.6 15.29Zm-23.73 0h-5.07v-40h5.07Z"/><path fill="#5c8692" d="M1021.021 56.433h-5.11l16.93-41.33h.09l16.93 41.33h-5.38l-4.71-11.86h-14Zm9.6-24-3.16 7.91h10.62l-3.15-7.91q-.58-1.51-1.11-2.98-.54-1.46-1.07-3.51-.53 2.05-1.02 3.49-.49 1.45-1.11 3"/><rect width="172.491" height="14.69" x="277.705" y="-364.233" fill="none" rx="0" ry="0" transform="translate(210.87 436.38)"/><path fill="#5c8692" d="M496.591 74.853v.56l-.71.13-2.61 4.33v2.81q0 .09.07.18t.2.1l.83.06v.55h-3.51v-.55l.81-.06q.14-.01.21-.1t.07-.18v-2.62l-2.49-4.5-.76-.15v-.56h3.09v.56l-.66.06q-.17.03-.17.16 0 .06.02.1l1.84 3.4 2.01-3.36q.02-.04.02-.09 0-.16-.17-.18l-.73-.09v-.56Zm9.12 4.37q0 .94-.3 1.77-.31.83-.86 1.45-.56.63-1.34.99-.78.35-1.74.35-1.27 0-2.23-.6-.95-.6-1.49-1.63-.53-1.04-.53-2.34 0-.96.3-1.78.29-.83.85-1.45.56-.63 1.34-.99.78-.35 1.75-.35t1.75.36q.78.35 1.34.98.55.64.86 1.46.3.83.3 1.78m-1.51.01q0-1.06-.3-1.93-.31-.87-.91-1.39-.61-.52-1.52-.52-.94 0-1.55.52t-.91 1.39-.3 1.91.3 1.92.91 1.41q.6.53 1.52.53.94 0 1.55-.53t.91-1.41q.3-.87.3-1.9m10.92-4.38v.56l-.75.05q-.14.01-.21.1t-.07.19v4.94q0 1.6-.85 2.34-.85.75-2.49.75-1.6 0-2.39-.78-.78-.78-.78-2.31v-4.94q0-.1-.07-.19-.06-.09-.2-.1l-.69-.05v-.56h3.3v.56l-.74.05q-.14.01-.21.1-.06.09-.06.19v4.6q0 .76.17 1.34t.65.9q.47.32 1.37.32t1.38-.34.66-.92q.19-.58.19-1.3v-4.6q0-.1-.08-.19-.07-.09-.21-.1l-.74-.05v-.56Zm8.79 8.18v.58q-.09.01-.33.09t-.53.08q-.67 0-1.06-.22t-.6-.59q-.21-.36-.34-.8-.12-.44-.25-.87-.12-.44-.35-.8-.22-.37-.62-.59t-1.08-.22q-.21 0-.39.01l-.2.01v2.97q0 .09.07.18t.2.1l.69.06v.55h-3.23v-.55l.67-.06q.14-.01.22-.1.07-.09.07-.18v-6.93q0-.1-.07-.19-.08-.09-.22-.1l-.67-.05v-.56h3.39q1.48 0 2.33.51.86.51.86 1.8 0 .68-.31 1.12-.3.43-.79.68-.48.25-1.04.37.61.15.95.42t.5.61q.17.34.25.71t.16.72q.09.35.25.63.17.28.51.44.35.17.96.17m-2.86-5.81q0-.83-.53-1.28t-1.76-.45h-.6v3.56h.27q.23.01.38.01 1.08 0 1.66-.4t.58-1.44m16.07 3.78q0 .78-.32 1.29-.32.5-.82.79-.51.28-1.08.39-.57.1-1.08.1h-3.64v-.55l.68-.06q.14-.01.21-.1t.07-.18v-6.93q0-.1-.07-.19t-.21-.1l-.68-.05v-.56h3.48q1.55 0 2.24.56.68.56.68 1.54 0 .64-.3 1.05-.31.41-.75.63-.43.21-.82.32.58 0 1.14.19.55.19.91.64t.36 1.22m-1.94-3.96q0-.77-.5-1.18t-1.5-.41q-.2 0-.44.02-.23.02-.3.02v3.28l.18.01q.18.01.29.01 1.27 0 1.77-.46t.5-1.29m.52 4.06q0-.88-.53-1.3-.53-.41-1.56-.41-.21 0-.47.02t-.46.04-.24.02v3.43l.15.01q.15.01.34.02t.31.01q1.37 0 1.91-.46.55-.46.55-1.38m9.08.3v2.17h-6.74v-.55l.68-.06q.14-.01.21-.1t.07-.18v-6.93q0-.1-.07-.19t-.21-.1l-.68-.05v-.56h6.32v1.94h-.78l-.2-1.07q-.01-.09-.07-.17-.07-.08-.16-.08h-2.82v3.24h1.95q.09 0 .16-.07.07-.08.07-.15l.13-.9h.67v2.9h-.67l-.13-.9q0-.07-.07-.15-.08-.08-.16-.08h-1.95v3.58h3.29q.08 0 .15-.09.07-.1.08-.16l.24-1.29Zm6.69-.27q0 .65-.35 1.26-.36.61-1.11 1-.76.39-1.99.39-.7 0-1.22-.12t-.8-.24l-.29-.12v-2.3h.82l.17 1.47q.01.08.08.16.07.09.14.12.03.01.37.16.34.14.94.14.83 0 1.37-.4.54-.41.54-1.13 0-.4-.22-.69-.22-.3-.57-.53-.34-.22-.74-.41t-.75-.36q-.54-.25-.99-.54-.46-.29-.74-.72-.28-.42-.28-1.08 0-.78.39-1.35.4-.57 1.08-.88.68-.32 1.53-.32.7 0 1.23.14.54.14.95.27l.11.04v2.02h-.74l-.19-1.24q-.02-.09-.08-.13-.07-.04-.13-.1-.05-.04-.31-.17-.27-.12-.82-.12-.78 0-1.23.43-.45.44-.45 1.1 0 .59.47.99.46.39 1.34.73 1.18.44 1.82 1 .65.55.65 1.53m8.08-6.28v2.08h-.77l-.19-1.22q-.04-.22-.21-.22h-1.86v7.19q0 .09.06.18.07.09.21.1l.83.06v.55h-3.52v-.55l.83-.06q.14-.01.21-.1.06-.09.06-.18v-7.19h-1.87q-.19 0-.22.22l-.18 1.22h-.75v-2.08Zm13.41 6.15q0 .78-.31 1.29-.32.5-.83.79-.5.28-1.07.39-.57.1-1.09.1h-3.63v-.55l.68-.06q.14-.01.21-.1.06-.09.06-.18v-6.93q0-.1-.06-.19-.07-.09-.21-.1l-.68-.05v-.56h3.47q1.56 0 2.25.56.68.56.68 1.54 0 .64-.31 1.05-.3.41-.74.63-.43.21-.82.32.58 0 1.13.19.56.19.92.64.35.45.35 1.22m-1.93-3.96q0-.77-.5-1.18t-1.5-.41q-.2 0-.44.02-.23.02-.3.02v3.28l.18.01q.18.01.29.01 1.27 0 1.77-.46t.5-1.29m.52 4.06q0-.88-.53-1.3-.53-.41-1.57-.41-.21 0-.47.02t-.46.04-.23.02v3.43l.14.01q.15.01.35.02.19.01.31.01 1.37 0 1.91-.46.55-.46.55-1.38m10.37 1.93v.58q-.08.01-.33.09-.24.08-.53.08-.67 0-1.06-.22t-.6-.59q-.21-.36-.34-.8-.12-.44-.25-.87-.12-.44-.35-.8-.22-.37-.62-.59t-1.08-.22q-.21 0-.39.01l-.2.01v2.97q0 .09.07.18t.21.1l.68.06v.55h-3.23v-.55l.67-.06q.14-.01.22-.1.07-.09.07-.18v-6.93q0-.1-.07-.19-.08-.09-.22-.1l-.67-.05v-.56h3.39q1.48 0 2.33.51.86.51.86 1.8 0 .68-.31 1.12-.3.43-.79.68-.48.25-1.04.37.61.15.95.42t.5.61q.17.34.25.71t.16.72q.09.35.25.63.17.28.52.44.34.17.95.17m-2.86-5.81q0-.83-.53-1.28t-1.76-.45h-.6v3.56h.27q.23.01.38.01 1.09 0 1.66-.4.58-.4.58-1.44m11.85 2q0 .94-.3 1.77t-.86 1.45q-.56.63-1.34.99-.78.35-1.73.35-1.28 0-2.23-.6-.96-.6-1.49-1.63-.53-1.04-.53-2.34 0-.96.29-1.78.3-.83.85-1.45.56-.63 1.34-.99.78-.35 1.76-.35.96 0 1.74.36.78.35 1.34.98.56.64.86 1.46.3.83.3 1.78m-1.5.01q0-1.06-.31-1.93-.3-.87-.91-1.39-.6-.52-1.51-.52-.94 0-1.55.52-.62.52-.91 1.39-.3.87-.3 1.91t.3 1.92q.29.88.9 1.41t1.53.53q.94 0 1.55-.53t.91-1.41q.3-.87.3-1.9m13.98-4.38v.56l-.79.15-1.99 8.22h-.95l-2.17-7.2-2.13 7.2h-.94l-2.12-8.22-.75-.15v-.56h2.97v.56l-.77.08q-.15.02-.15.19 0 .02.02.07l1.55 5.86 2.03-6.76h1.01l2.09 6.97 1.44-6.07q.01-.02.01-.05 0-.19-.19-.21l-.82-.08v-.56Zm6.4 6.28q0 .65-.35 1.26t-1.11 1-1.99.39q-.69 0-1.22-.12-.52-.12-.8-.24l-.29-.12v-2.3h.82l.17 1.47q.02.08.09.16.07.09.13.12.03.01.37.16.34.14.94.14.83 0 1.37-.4.54-.41.54-1.13 0-.4-.22-.69-.21-.3-.56-.53-.35-.22-.75-.41t-.75-.36q-.53-.25-.99-.54t-.74-.72q-.28-.42-.28-1.08 0-.78.4-1.35.39-.57 1.07-.88.68-.32 1.54-.32.69 0 1.23.14.53.14.94.27l.12.04v2.02h-.75l-.19-1.24q-.02-.09-.08-.13-.07-.04-.13-.1-.05-.04-.31-.17-.26-.12-.82-.12-.78 0-1.23.43-.45.44-.45 1.1 0 .59.47.99.47.39 1.34.73 1.18.44 1.83 1 .64.55.64 1.53"/></g><path fill="transparent" stroke="transparent" d="M467.5 0h565v87h-565z"/></g></svg>